<?xml version="1.0" encoding="UTF-8" standalone="no"?> <svg width="64" height="64" viewBox="0 0 64 64" fill="none" xmlns="http://www.w3.org/2000/svg">
<path d="M57.9999 8.13989H28.8399C27.6703 8.13989 26.5486 8.60452 25.7216 9.43155C24.8946 10.2586 24.4299 11.3803 24.4299 12.5499V27.7199C24.4275 27.8678 24.458 28.0145 24.5191 28.1492C24.5802 28.284 24.6704 28.4035 24.7833 28.4991C24.8962 28.5948 25.0289 28.6642 25.1718 28.7024C25.3148 28.7406 25.4644 28.7465 25.6099 28.7199V33.5399H32.4399C32.4399 33.8051 32.5453 34.0595 32.7328 34.247C32.9204 34.4345 33.1747 34.5399 33.4399 34.5399H44.7399L55.1799 44.9999C55.3195 45.1403 55.4975 45.2362 55.6915 45.2754C55.8856 45.3145 56.0869 45.2952 56.2699 45.2199C56.4541 45.1442 56.6115 45.0153 56.722 44.8496C56.8325 44.6839 56.8909 44.489 56.8899 44.2899V34.5199H57.9999C59.1695 34.5199 60.2912 34.0553 61.1183 33.2282C61.9453 32.4012 62.4099 31.2795 62.4099 30.1099V12.5499C62.4073 11.3811 61.9418 10.2609 61.1154 9.43447C60.2889 8.60801 59.1687 8.14253 57.9999 8.13989V8.13989Z" fill="#5C5D60"/>
<path d="M30.78 26.73H8.08996C7.61026 26.7287 7.13503 26.8222 6.6916 27.0051C6.24817 27.1881 5.84527 27.4569 5.50607 27.7961C5.16688 28.1353 4.89807 28.5382 4.71511 28.9816C4.53214 29.4251 4.43864 29.9003 4.43996 30.38V44C4.44983 44.5344 4.57351 45.0605 4.80275 45.5433C5.03199 46.0261 5.36152 46.4545 5.76938 46.7999C6.17723 47.1453 6.65403 47.3997 7.16799 47.5463C7.68195 47.6929 8.22126 47.7283 8.74996 47.65V55C8.74896 55.1991 8.80743 55.394 8.91789 55.5597C9.02835 55.7254 9.18576 55.8543 9.36996 55.93C9.55301 56.0053 9.75431 56.0246 9.94835 55.9855C10.1424 55.9463 10.3204 55.8504 10.46 55.71L18.46 47.71H30.78C31.2648 47.71 31.7449 47.6137 32.1922 47.4267C32.6396 47.2396 33.0453 46.9656 33.3858 46.6204C33.7263 46.2752 33.9949 45.8658 34.1758 45.416C34.3568 44.9661 34.4466 44.4848 34.44 44V30.38C34.44 29.8998 34.3452 29.4244 34.1612 28.9809C33.9771 28.5374 33.7074 28.1346 33.3674 27.7955C33.0274 27.4564 32.6238 27.1878 32.1798 27.005C31.7358 26.8221 31.2601 26.7287 30.78 26.73V26.73Z" fill="#A9B3B6"/>
<path d="M15.44 34.4099C14.8743 34.4099 14.3214 34.5776 13.851 34.8919C13.3807 35.2062 13.0141 35.6528 12.7977 36.1754C12.5812 36.698 12.5246 37.2731 12.6349 37.8279C12.7453 38.3827 13.0177 38.8923 13.4176 39.2922C13.8176 39.6922 14.3272 39.9646 14.882 40.075C15.4368 40.1853 16.0118 40.1287 16.5344 39.9122C17.057 39.6957 17.5037 39.3292 17.818 38.8588C18.1322 38.3885 18.3 37.8356 18.3 37.2699C18.3 36.5114 17.9986 35.7839 17.4623 35.2476C16.9259 34.7112 16.1985 34.4099 15.44 34.4099Z" fill="white"/>
<path d="M23.4199 34.4099C22.8543 34.4099 22.3013 34.5776 21.831 34.8919C21.3607 35.2062 20.9941 35.6528 20.7776 36.1754C20.5612 36.698 20.5045 37.2731 20.6149 37.8279C20.7252 38.3827 20.9976 38.8923 21.3976 39.2922C21.7976 39.6922 22.3072 39.9646 22.862 40.075C23.4168 40.1853 23.9918 40.1287 24.5144 39.9122C25.037 39.6957 25.4837 39.3292 25.7979 38.8588C26.1122 38.3885 26.2799 37.8356 26.2799 37.2699C26.2773 36.5122 25.9751 35.7863 25.4394 35.2505C24.9036 34.7147 24.1776 34.4125 23.4199 34.4099Z" fill="white"/>
<path d="M34.4099 18.0498C33.8438 18.0478 33.2899 18.2139 32.8183 18.527C32.3466 18.84 31.9785 19.286 31.7605 19.8084C31.5425 20.3308 31.4844 20.9062 31.5937 21.4616C31.7029 22.0171 31.9745 22.5276 32.3741 22.9286C32.7736 23.3296 33.2832 23.6029 33.8383 23.7141C34.3933 23.8253 34.9689 23.7692 35.4921 23.5531C36.0153 23.3369 36.4625 22.9703 36.7772 22.4998C37.0919 22.0292 37.2599 21.4759 37.2599 20.9098C37.2573 20.1538 36.9565 19.4294 36.4229 18.8939C35.8893 18.3584 35.1659 18.0551 34.4099 18.0498V18.0498Z" fill="white"/>
<path d="M50.58 18.0498C50.0143 18.0498 49.4614 18.2175 48.991 18.5318C48.5207 18.8461 48.1541 19.2927 47.9377 19.8153C47.7212 20.3379 47.6646 20.913 47.7749 21.4678C47.8853 22.0225 48.1577 22.5322 48.5576 22.9321C48.9576 23.3321 49.4672 23.6045 50.022 23.7149C50.5768 23.8252 51.1518 23.7686 51.6744 23.5521C52.197 23.3356 52.6437 22.9691 52.958 22.4987C53.2722 22.0284 53.44 21.4755 53.44 20.9098C53.4373 20.1521 53.1352 19.4262 52.5994 18.8904C52.0636 18.3546 51.3377 18.0524 50.58 18.0498Z" fill="white"/>
<path d="M42.3899 18.0498C41.8243 18.0498 41.2713 18.2175 40.801 18.5318C40.3307 18.8461 39.9641 19.2927 39.7476 19.8153C39.5311 20.3379 39.4745 20.913 39.5849 21.4678C39.6952 22.0225 39.9676 22.5322 40.3676 22.9321C40.7676 23.3321 41.2772 23.6045 41.832 23.7149C42.3867 23.8252 42.9618 23.7686 43.4844 23.5521C44.007 23.3356 44.4537 22.9691 44.7679 22.4987C45.0822 22.0284 45.2499 21.4755 45.2499 20.9098C45.2473 20.1521 44.9451 19.4262 44.4093 18.8904C43.8735 18.3546 43.1476 18.0524 42.3899 18.0498V18.0498Z" fill="white"/>
</svg>
